<svg xmlns="http://www.w3.org/2000/svg" xmlns:xlink="http://www.w3.org/1999/xlink" width="106" zoomAndPan="magnify" viewBox="0 0 79.5 30.000001" height="40" preserveAspectRatio="xMidYMid meet" version="1.0"><defs><g/><clipPath id="ace8cf2d08"><path d="M 1.039062 5 L 20 5 L 20 24 L 1.039062 24 Z M 1.039062 5 " clip-rule="nonzero"/></clipPath><clipPath id="7734bd234c"><path d="M 59 5 L 77.976562 5 L 77.976562 24 L 59 24 Z M 59 5 " clip-rule="nonzero"/></clipPath></defs><g clip-path="url(#ace8cf2d08)"><g fill="#000000" fill-opacity="1"><g transform="translate(1.068676, 23.925855)"><g><path d="M 15.328125 0.0507812 L 16.316406 -0.0273438 L 16.8125 0.0273438 L 17.617188 0 L 18.34375 -0.128906 L 18.421875 -0.753906 L 18.238281 -1.351562 L 17.851562 -2.3125 L 17.148438 -3.664062 L 16.785156 -4.625 L 16.265625 -5.558594 L 15.277344 -7.925781 L 15.019531 -8.3125 L 14.757812 -8.808594 L 14.601562 -9.378906 L 14.367188 -9.769531 L 14.210938 -10.183594 L 13.667969 -11.144531 L 13.484375 -11.691406 L 11.769531 -15.304688 L 11.613281 -15.824219 L 11.328125 -16.289062 L 11.171875 -16.757812 L 10.679688 -17.667969 L 10.238281 -18.136719 L 9.378906 -18.394531 L 8.546875 -18.109375 L 8.082031 -17.667969 L 7.847656 -17.226562 L 7.664062 -16.707031 L 7.429688 -16.34375 L 6.390625 -13.953125 L 6.105469 -13.5625 L 5.976562 -13.042969 L 5.691406 -12.550781 L 5.535156 -12.082031 L 2.882812 -6.523438 L 2.726562 -5.949219 L 2.46875 -5.558594 L 2.285156 -5.039062 L 1.820312 -4.210938 L 1.429688 -3.167969 L 1.144531 -2.804688 L 1.011719 -2.339844 L 0.492188 -1.300781 L 0.335938 -0.78125 L 0.46875 -0.128906 L 0.988281 0.0273438 L 2 -0.0273438 L 2.519531 0.0273438 L 3.976562 -0.0273438 L 4.574219 -0.207031 L 5.066406 -0.675781 L 5.535156 -1.53125 L 6.027344 -2.027344 L 6.574219 -2.3125 L 7.066406 -2.234375 L 8.160156 -2.339844 L 8.625 -2.261719 L 11.171875 -2.285156 L 11.640625 -2.234375 L 12.210938 -2.3125 L 12.785156 -2.027344 L 13.277344 -1.609375 L 13.511719 -1.117188 L 13.667969 -0.648438 L 14.1875 -0.261719 L 14.785156 0 Z M 9.429688 -6.417969 L 8.910156 -6.523438 L 8.3125 -6.46875 L 7.898438 -6.652344 L 7.871094 -7.144531 L 9.09375 -9.953125 L 9.378906 -10.183594 L 9.742188 -9.976562 L 10.964844 -7.121094 L 10.859375 -6.652344 L 10.472656 -6.445312 Z M 9.429688 -6.417969 "/></g></g></g></g><g fill="#000000" fill-opacity="1"><g transform="translate(19.927202, 23.925855)"><g><path d="M 15.328125 -0.414062 L 16.082031 -0.078125 L 16.757812 0.128906 L 17.355469 -0.15625 L 17.589844 -0.703125 L 17.71875 -7.769531 L 17.617188 -8.496094 L 17.667969 -9.066406 L 17.5625 -12.1875 L 17.640625 -13.226562 L 17.589844 -13.71875 L 17.589844 -14.757812 L 17.695312 -15.277344 L 17.640625 -16.058594 L 17.695312 -17.40625 L 17.382812 -17.875 L 16.8125 -18.136719 L 16.289062 -18.1875 L 15.796875 -18.1875 L 15.226562 -18.136719 L 14.679688 -18.214844 L 14.210938 -18.160156 L 13.691406 -18.1875 L 13.070312 -17.929688 L 12.808594 -17.382812 L 12.785156 -12.652344 L 12.886719 -12.109375 L 12.886719 -11.613281 L 12.785156 -11.070312 L 12.808594 -10.027344 L 12.679688 -9.613281 L 12.316406 -9.71875 L 11.171875 -10.886719 L 10.78125 -11.199219 L 9.875 -12.132812 L 9.457031 -12.445312 L 9.171875 -12.808594 L 8.625 -13.382812 L 7.820312 -14.054688 L 7.535156 -14.445312 L 7.042969 -14.785156 L 6.78125 -15.171875 L 6.339844 -15.484375 L 6 -15.925781 L 4.597656 -17.355469 L 3.558594 -18.058594 L 2.859375 -18.265625 L 2.234375 -17.953125 L 1.898438 -17.460938 L 1.949219 -13.824219 L 1.898438 -13.304688 L 1.976562 -12.238281 L 1.921875 -11.769531 L 1.949219 -11.222656 L 1.871094 -10.679688 L 1.976562 -6.964844 L 1.921875 -6.496094 L 1.921875 -6 L 1.871094 -5.429688 L 1.871094 -4.9375 L 1.949219 -4.390625 L 1.921875 -3.324219 L 1.976562 -2.804688 L 1.898438 -1.820312 L 1.976562 -1.300781 L 1.976562 -0.804688 L 2.207031 -0.234375 L 2.703125 0.0507812 L 3.585938 0 L 4.882812 0.078125 L 5.429688 0 L 6.027344 0.0507812 L 6.546875 -0.207031 L 6.78125 -0.726562 L 6.703125 -1.246094 L 6.78125 -7.613281 L 6.675781 -8.160156 L 6.9375 -8.46875 L 7.273438 -8.390625 L 10.992188 -4.753906 L 11.40625 -4.417969 L 13.925781 -1.898438 L 14.265625 -1.480469 L 14.679688 -1.144531 L 14.992188 -0.753906 Z M 15.328125 -0.414062 "/></g></g></g><g fill="#000000" fill-opacity="1"><g transform="translate(39.513059, 23.925855)"><g><path d="M 15.328125 -0.414062 L 16.082031 -0.078125 L 16.757812 0.128906 L 17.355469 -0.15625 L 17.589844 -0.703125 L 17.71875 -7.769531 L 17.617188 -8.496094 L 17.667969 -9.066406 L 17.5625 -12.1875 L 17.640625 -13.226562 L 17.589844 -13.71875 L 17.589844 -14.757812 L 17.695312 -15.277344 L 17.640625 -16.058594 L 17.695312 -17.40625 L 17.382812 -17.875 L 16.8125 -18.136719 L 16.289062 -18.1875 L 15.796875 -18.1875 L 15.226562 -18.136719 L 14.679688 -18.214844 L 14.210938 -18.160156 L 13.691406 -18.1875 L 13.070312 -17.929688 L 12.808594 -17.382812 L 12.785156 -12.652344 L 12.886719 -12.109375 L 12.886719 -11.613281 L 12.785156 -11.070312 L 12.808594 -10.027344 L 12.679688 -9.613281 L 12.316406 -9.71875 L 11.171875 -10.886719 L 10.78125 -11.199219 L 9.875 -12.132812 L 9.457031 -12.445312 L 9.171875 -12.808594 L 8.625 -13.382812 L 7.820312 -14.054688 L 7.535156 -14.445312 L 7.042969 -14.785156 L 6.78125 -15.171875 L 6.339844 -15.484375 L 6 -15.925781 L 4.597656 -17.355469 L 3.558594 -18.058594 L 2.859375 -18.265625 L 2.234375 -17.953125 L 1.898438 -17.460938 L 1.949219 -13.824219 L 1.898438 -13.304688 L 1.976562 -12.238281 L 1.921875 -11.769531 L 1.949219 -11.222656 L 1.871094 -10.679688 L 1.976562 -6.964844 L 1.921875 -6.496094 L 1.921875 -6 L 1.871094 -5.429688 L 1.871094 -4.9375 L 1.949219 -4.390625 L 1.921875 -3.324219 L 1.976562 -2.804688 L 1.898438 -1.820312 L 1.976562 -1.300781 L 1.976562 -0.804688 L 2.207031 -0.234375 L 2.703125 0.0507812 L 3.585938 0 L 4.882812 0.078125 L 5.429688 0 L 6.027344 0.0507812 L 6.546875 -0.207031 L 6.78125 -0.726562 L 6.703125 -1.246094 L 6.78125 -7.613281 L 6.675781 -8.160156 L 6.9375 -8.46875 L 7.273438 -8.390625 L 10.992188 -4.753906 L 11.40625 -4.417969 L 13.925781 -1.898438 L 14.265625 -1.480469 L 14.679688 -1.144531 L 14.992188 -0.753906 Z M 15.328125 -0.414062 "/></g></g></g><g clip-path="url(#7734bd234c)"><g fill="#000000" fill-opacity="1"><g transform="translate(59.098915, 23.925855)"><g><path d="M 0.335938 -0.703125 L 0.46875 -0.15625 L 0.988281 -0.0273438 L 3.273438 -0.0273438 L 3.949219 0.0507812 L 4.546875 -0.207031 L 5.015625 -0.675781 L 5.457031 -1.558594 L 5.898438 -2.050781 L 6.523438 -2.3125 L 7.042969 -2.261719 L 8.496094 -2.285156 L 9.042969 -2.207031 L 9.640625 -2.285156 L 10.105469 -2.285156 L 10.652344 -2.234375 L 11.875 -2.285156 L 12.730469 -2 L 13.277344 -1.585938 L 13.40625 -1.117188 L 13.691406 -0.648438 L 14.132812 -0.234375 L 14.808594 0.0273438 L 15.277344 -0.0273438 L 16.1875 0.0507812 L 17.796875 0 L 18.265625 -0.15625 L 18.371094 -0.703125 L 18.214844 -1.351562 L 18.03125 -1.820312 L 17.695312 -2.261719 L 17.539062 -2.78125 L 17.277344 -3.167969 L 17.121094 -3.664062 L 16.679688 -4.597656 L 16.5 -5.09375 L 16.238281 -5.535156 L 15.875 -6.496094 L 15.589844 -6.910156 L 15.382812 -7.429688 L 15.148438 -7.871094 L 14.964844 -8.390625 L 14.730469 -8.78125 L 14.574219 -9.300781 L 14.289062 -9.769531 L 14.082031 -10.210938 L 13.824219 -10.652344 L 13.691406 -11.144531 L 13.171875 -12.054688 L 13.015625 -12.550781 L 12.550781 -13.535156 L 12.417969 -13.953125 L 12.03125 -14.863281 L 11.511719 -15.824219 L 11.09375 -16.8125 L 10.859375 -17.199219 L 10.703125 -17.695312 L 10.238281 -18.1875 L 9.355469 -18.421875 L 8.523438 -18.160156 L 8.027344 -17.695312 L 7.871094 -17.226562 L 6.753906 -14.886719 L 6.46875 -14.421875 L 5.015625 -11.144531 L 4.882812 -10.703125 L 4.597656 -10.238281 L 4.183594 -9.300781 L 3.792969 -8.625 L 3.613281 -8.132812 L 3.246094 -7.457031 L 3.09375 -6.910156 L 2.859375 -6.496094 L 2.675781 -5.976562 L 1.949219 -4.625 L 1.195312 -2.726562 L 0.882812 -2.3125 L 0.648438 -1.792969 Z M 8.367188 -6.417969 L 7.871094 -6.625 L 7.792969 -7.144531 L 8.835938 -9.507812 L 9.066406 -9.925781 L 9.40625 -10.183594 L 9.71875 -9.976562 L 10.054688 -8.964844 L 10.339844 -8.523438 L 10.445312 -8.105469 L 10.703125 -7.585938 L 10.886719 -7.121094 L 10.835938 -6.652344 L 10.394531 -6.445312 Z M 8.367188 -6.417969 "/></g></g></g></g></svg>